P3
11 7
255
255 255 255 	0 0 0 	255 255 255 	255 255 255 	255 255 255 	255 255 255 	255 255 255 	255 255 255 	255 255 255 	0 0 0 	255 255 255 	
255 255 255 	0 0 0 	255 255 255 	255 255 255 	170 170 255 	255 255 255 	170 170 255 	255 255 255 	255 255 255 	0 0 0 	255 255 255 	
255 255 255 	0 0 0 	255 255 255 	255 255 255 	255 255 255 	255 255 255 	255 255 255 	255 255 255 	255 255 255 	0 0 0 	255 255 255 	
255 255 255 	0 0 0 	255 255 255 	255 255 255 	255 255 255 	255 170 170 	255 255 255 	255 255 255 	255 255 255 	0 0 0 	255 255 255 	
255 255 255 	0 0 0 	255 255 255 	170 255 170 	255 255 255 	255 255 255 	255 255 255 	170 255 170 	255 255 255 	0 0 0 	255 255 255 	
255 255 255 	0 0 0 	255 255 255 	255 255 255 	170 255 170 	170 255 170 	170 255 170 	255 255 255 	255 255 255 	0 0 0 	255 255 255 	
255 255 255 	0 0 0 	255 255 255 	255 255 255 	255 255 255 	255 255 255 	255 255 255 	255 255 255 	255 255 255 	0 0 0 	255 255 255 	
